<svg xmlns="http://www.w3.org/2000/svg" viewBox="0 0 100 100">
  <!-- The CADOnline mark on a rounded chip in the app's theme colour (#181c22),
       so the white tiles read on light and dark browser chrome alike. Tile
       geometry matches src/app/shared/ui/logo.component.ts. -->
  <rect width="100" height="100" rx="22" fill="#181c22"/>
  <g transform="translate(21 21) scale(.58)" fill="#ffffff" fill-rule="evenodd">
    <path d="M8.3 0h28.6a8.3 8.3 0 0 1 8.3 8.3v28.6a8.3 8.3 0 0 1 -8.3 8.3h-28.6a8.3 8.3 0 0 1 -8.3 -8.3v-28.6a8.3 8.3 0 0 1 8.3 -8.3ZM8.9 8.9h27.4v27.4h-27.4Z"/>
    <path d="M63.1 0h28.6a8.3 8.3 0 0 1 8.3 8.3v28.6a8.3 8.3 0 0 1 -8.3 8.3h-28.6a8.3 8.3 0 0 1 -8.3 -8.3v-28.6a8.3 8.3 0 0 1 8.3 -8.3ZM63.7 8.9h27.4v27.4h-27.4Z"/>
    <path d="M8.3 54.8h28.6a8.3 8.3 0 0 1 8.3 8.3v28.6a8.3 8.3 0 0 1 -8.3 8.3h-28.6a8.3 8.3 0 0 1 -8.3 -8.3v-28.6a8.3 8.3 0 0 1 8.3 -8.3ZM8.9 63.7h27.4v27.4h-27.4Z"/>
    <path d="M63.1 54.8h28.6a8.3 8.3 0 0 1 8.3 8.3v28.6a8.3 8.3 0 0 1 -8.3 8.3h-28.6a8.3 8.3 0 0 1 -8.3 -8.3v-28.6a8.3 8.3 0 0 1 8.3 -8.3ZM63.7 63.7h27.4v27.4h-27.4Z"/>
  </g>
</svg>
